<?xml version="1.0" encoding="utf-8"?>
<!-- Generator: Adobe Illustrator 16.0.0, SVG Export Plug-In . SVG Version: 6.00 Build 0)  -->
<!DOCTYPE svg PUBLIC "-//W3C//DTD SVG 1.1//EN" "http://www.w3.org/Graphics/SVG/1.1/DTD/svg11.dtd">
<svg version="1.1" id="Calque_1" xmlns="http://www.w3.org/2000/svg" xmlns:xlink="http://www.w3.org/1999/xlink" x="0px" y="0px"
	 width="165px" height="265px" viewBox="0 0 165 265" enable-background="new 0 0 165 265" xml:space="preserve">
<g>
	<defs>
		<rect id="SVGID_1_" x="-639.25" y="-234.09" width="822.05" height="822.05"/>
	</defs>
	<clipPath id="SVGID_2_">
		<use xlink:href="#SVGID_1_"  overflow="visible"/>
	</clipPath>
</g>
<polygon display="none" points="-565.85,131.605 -598.032,131.605 -609.932,131.605 -609.932,54.823 -597.928,54.823 
	-597.928,120.74 -565.85,120.74 "/>
<path display="none" d="M-511.841,115.152h-27.318l-6.519,16.453h-13.245l33.423-80.299l33.32,80.299h-13.142L-511.841,115.152z
	 M-516.187,104.391l-9.313-23.387l-9.312,23.387H-516.187z"/>
<polygon display="none" points="-393.884,65.586 -414.995,65.586 -414.995,131.605 -427.101,131.605 -427.101,65.586 
	-448.211,65.586 -448.211,54.823 -393.884,54.823 "/>
<g>
	<defs>
		<rect id="SVGID_3_" x="-639.25" y="-234.09" width="822.05" height="822.05"/>
	</defs>
	<clipPath id="SVGID_4_">
		<use xlink:href="#SVGID_3_"  overflow="visible"/>
	</clipPath>
	<path display="none" clip-path="url(#SVGID_4_)" d="M-325.489,131.605h-13.555l-19.35-25.973h-8.795v25.973h-12.005V54.824h10.142
		h12.624c10.14,0,16.039,4.14,19.143,7.658c4.036,4.45,6.209,10.659,6.209,17.799c0,7.036-2.173,13.245-6.209,17.694
		c-1.863,2.07-4.76,4.45-8.899,5.899L-325.489,131.605z M-356.428,94.871c4.966,0,8.691-1.449,11.071-4.14
		c2.898-3.104,3.416-7.45,3.416-10.45c0-3.105-0.518-7.452-3.416-10.556c-2.38-2.69-6.105-4.036-11.071-4.036h-10.761v29.182
		H-356.428z"/>
	<path display="none" clip-path="url(#SVGID_4_)" d="M-293.104,128.604c-4.657-1.965-8.692-4.76-12.211-8.278
		c-3.518-3.519-6.311-7.554-8.278-12.21c-1.966-4.658-3.001-9.728-3.001-14.902c0-5.174,1.035-10.244,3.001-15.004
		c1.967-4.552,4.76-8.589,8.278-12.21c3.519-3.519,7.554-6.209,12.211-8.175s9.727-3.002,14.901-3.002
		c5.174,0,10.244,1.036,15.004,3.002c4.554,1.966,8.589,4.656,12.21,8.175c3.519,3.621,6.209,7.658,8.175,12.21
		c1.966,4.76,3.001,9.83,3.001,15.004c0,5.174-1.035,10.244-3.001,14.902c-1.966,4.656-4.656,8.691-8.175,12.21
		c-3.621,3.518-7.656,6.313-12.21,8.278c-4.76,1.966-9.83,3.001-15.004,3.001C-283.377,131.605-288.447,130.57-293.104,128.604
		 M-296.83,74.589c-4.966,4.966-7.76,11.589-7.76,18.625c0,7.037,2.794,13.659,7.76,18.627c4.968,4.966,11.59,7.76,18.627,7.76
		c7.036,0,13.659-2.794,18.626-7.76c4.967-4.968,7.76-11.59,7.76-18.627c0-7.036-2.793-13.659-7.76-18.625
		c-4.967-4.968-11.59-7.761-18.626-7.761C-285.24,66.828-291.862,69.621-296.83,74.589"/>
	<path display="none" clip-path="url(#SVGID_4_)" d="M-214.673,125.5c-3.001-2.276-5.277-5.07-6.83-8.279
		c-1.759-3.517-2.588-7.45-2.588-11.693V54.824h12.004v50.704c0,4.553,1.657,8.072,4.763,10.452
		c2.896,2.276,7.139,3.621,11.69,3.621c4.452,0,8.693-1.345,11.694-3.621c3.104-2.38,4.656-5.899,4.656-10.452V54.824h12.106v50.704
		c0,4.243-0.931,8.176-2.586,11.693c-1.655,3.209-3.933,6.003-6.831,8.279c-5.067,3.933-11.795,6.105-19.04,6.105
		C-202.875,131.605-209.603,129.433-214.673,125.5"/>
	<path display="none" clip-path="url(#SVGID_4_)" d="M-138.103,54.824h12.622c10.142,0,16.039,4.14,19.146,7.554
		c4.14,4.554,6.207,10.659,6.207,17.799s-2.067,13.349-6.207,17.798c-3.106,3.519-9.004,7.658-19.146,7.658h-10.76v25.973h-12.005
		V54.824H-138.103z M-110.889,80.177c0-3.001-0.623-7.348-3.416-10.451c-2.482-2.691-6.207-4.139-11.176-4.139h-10.76v29.18h10.76
		c4.969,0,8.693-1.345,11.176-4.036C-111.512,87.626-110.889,83.281-110.889,80.177"/>
	<polygon display="none" clip-path="url(#SVGID_4_)" points="-74.571,86.074 -46.529,86.074 -46.529,96.939 -74.571,96.939 
		-74.571,120.74 -40.527,120.74 -40.527,131.605 -74.676,131.605 -86.576,131.605 -86.576,54.823 -74.676,54.823 -40.527,54.823 
		-40.527,65.586 -74.571,65.586 	"/>
	<path display="none" clip-path="url(#SVGID_4_)" fill="#BE1622" d="M-626.062,235.562l0.606-0.707l0.303-1.011
		c1.819-2.493,5.018-5.743,9.599-9.752c4.58-4.006,7.747-7.256,9.499-9.75c0.673-1.078,1.447-1.852,2.324-2.324
		c0.875-0.472,1.75-0.707,2.627-0.707c2.357,0,4.345,0.59,5.962,1.767c1.617,1.181,2.694,2.949,3.233,5.307
		c0.471,2.089,0.91,4.191,1.314,6.313c0.404,2.122,0.74,4.264,1.01,6.418c0.471,1.347,1.044,3.384,1.718,6.112
		c0.673,2.728,1.179,4.296,1.516,4.7c0.336,0.674,0.841,1.161,1.516,1.464c0.673,0.303,1.515,0.456,2.526,0.456
		c1.212,0,2.458-0.219,3.738-0.658c1.28-0.437,2.593-1.194,3.941-2.273c1.011-0.876,2.072-1.769,3.183-2.679
		c1.112-0.909,2.205-1.799,3.284-2.676l4.042,9.296c-1.079,1.079-2.51,2.308-4.294,3.688c-1.786,1.382-3.925,2.981-6.417,4.801
		c-2.762,2.021-5.12,3.52-7.073,4.495c-1.954,0.978-3.436,1.467-4.446,1.467c-6.131,0-10.105-0.707-11.924-2.122
		c-1.818-1.415-3.839-5.356-6.062-11.822c-0.271-0.538-0.675-1.18-1.213-1.92c-0.539-0.74-1.146-1.617-1.819-2.628
		c-0.808-1.548-1.516-2.711-2.122-3.487c-0.606-0.772-1.111-1.161-1.516-1.161c-1.078,0-2.526,0.725-4.344,2.172
		c-1.819,1.45-4.042,3.622-6.67,6.519c-0.337-0.876-0.757-1.92-1.263-3.132c-0.505-1.213-1.026-2.627-1.566-4.244
		c-0.134-0.404-0.303-0.776-0.505-1.112C-625.557,236.033-625.792,235.764-626.062,235.562 M-583.825,155.834
		c1.684,0,2.913,0.337,3.688,1.01c0.774,0.675,1.162,1.651,1.162,2.931c-0.404,1.887-0.741,3.47-1.01,4.749
		c-0.675,2.425-1.263,4.413-1.769,5.962c-0.505,1.55-0.893,2.661-1.162,3.334c-0.606,1.483-1.432,2.779-2.475,3.892
		c-1.045,1.11-2.308,2.104-3.789,2.979c-1.55,1.079-2.848,1.837-3.891,2.274c-1.044,0.438-1.768,0.624-2.172,0.556
		c-1.146-0.134-2.241-0.253-3.284-0.354c-1.045-0.101-2.072-0.151-3.082-0.151c-0.877-0.471-1.566-1.38-2.072-2.729
		c-0.505-1.346-0.757-3.165-0.757-5.456c0-2.021,1.228-4.564,3.688-7.629c2.458-3.064,4.63-4.699,6.517-4.901
		c1.144-1.415,2.492-3.031,4.042-4.85c0.673-0.471,1.549-0.859,2.627-1.162C-586.486,155.986-585.24,155.834-583.825,155.834"/>
	<path display="none" clip-path="url(#SVGID_4_)" fill="#BE1622" d="M-568.264,235.562c0.406-0.472,0.878-1.095,1.416-1.871
		c0.542-0.773,1.148-1.633,1.822-2.575c2.967-3.706,5.849-7.023,8.649-9.954c2.799-2.931,5.447-5.539,7.943-7.83
		c1.282-1.213,2.833-2.779,4.655-4.699c1.82-1.92,3.946-4.125,6.374-6.619c2.428-0.942,5.092-2.021,7.993-3.233
		c1.819,0,3.166,0.59,4.042,1.769c0.875,1.18,1.314,2.88,1.314,5.103c0,1.888-0.152,3.926-0.455,6.113
		c-0.303,2.189-0.725,4.43-1.263,6.721c-0.606,1.819-1.111,3.57-1.516,5.255c0,0.473,0.101,0.824,0.303,1.06
		c0.203,0.237,0.538,0.354,1.011,0.354c1.01-0.472,2.963-2.155,5.861-5.052c2.896-2.898,6.701-6.94,11.418-12.126
		c4.042-4.447,7.578-7.764,10.61-9.954c3.031-2.189,5.456-3.284,7.275-3.284c1.951,0,3.381,0.726,4.29,2.172
		c0.907,1.449,1.362,3.588,1.362,6.417c0,4.111-0.303,8.069-0.907,11.873c-0.606,3.808-1.649,7.461-3.13,10.965
		c-0.27,0.675-0.439,1.245-0.505,1.718c-0.068,0.473-0.101,0.909-0.101,1.313c0,0.474,0.404,0.91,1.213,1.314
		c0.536-0.474,1.159-1.146,1.866-2.021c0.708-0.877,1.531-1.987,2.473-3.335c1.549-1.281,3.096-2.559,4.643-3.84
		c1.547-1.28,3.229-2.594,5.048-3.94c1.885-1.482,3.803-2.61,5.754-3.387c1.952-0.772,3.869-1.16,5.753-1.16
		c0.336,0,0.673,0.102,1.009,0.304c0.336,0.201,0.673,0.437,1.011,0.707c1.547,1.346,2.826,2.574,3.837,3.687
		c1.009,1.111,1.713,2.073,2.118,2.881c2.624,5.388,4.965,9.414,7.017,12.074c2.052,2.662,3.852,3.992,5.399,3.992
		c0.336,0,0.673-0.084,1.009-0.254c0.336-0.166,0.673-0.386,1.011-0.655c1.548,3.302,2.862,6.399,3.94,9.296
		c-2.423,1.887-4.577,3.318-6.462,4.293c-1.885,0.979-3.534,1.467-4.948,1.467c-4.645,0-9.442-3.015-14.389-9.045
		c-4.949-6.026-8.735-9.042-11.358-9.042c-3.503,0-9.325,5.169-17.469,15.509c-8.145,10.343-13.228,15.513-15.247,15.513
		c-1.011,0-2.358-0.102-4.042-0.304c-0.539-0.201-0.944-0.622-1.213-1.265c-0.27-0.639-0.404-1.395-0.404-2.271
		c0-1.011,0.202-2.341,0.607-3.993c0.404-1.649,0.942-3.585,1.616-5.809c0.876-2.83,1.583-5.085,2.122-6.771
		c0.538-1.686,0.841-2.862,0.91-3.536c0.202-0.877,0.487-2.595,0.859-5.154c0.37-2.558,0.858-5.961,1.465-10.205
		c0-0.739-0.202-1.313-0.607-1.718c-0.404-0.404-0.876-0.605-1.414-0.605c-0.473,0-0.994,0.149-1.566,0.452
		c-0.574,0.304-1.231,0.792-1.971,1.468c-0.808,0.876-1.701,1.75-2.678,2.627c-0.977,0.876-2.543,2.122-4.698,3.738
		c-2.358,2.695-4.767,5.44-7.225,8.233c-2.459,2.797-4.969,5.61-7.528,8.439c-4.042,4.717-7.259,8.2-9.65,10.457
		c-2.392,2.259-3.924,3.387-4.598,3.387c-2.027,0-3.565-0.235-4.611-0.708c-1.047-0.473-1.57-1.18-1.57-2.122
		c0-2.223,1.199-6.854,3.595-13.896c2.397-7.037,3.597-12.005,3.597-14.902c0-0.473-0.152-0.86-0.455-1.163
		c-0.303-0.304-0.691-0.454-1.163-0.454c-0.811,0-1.774,0.454-2.888,1.363c-1.114,0.908-2.383,2.343-3.8,4.296
		c-0.948,1.079-2.095,2.324-3.447,3.739c-1.352,1.413-3.007,3.063-4.966,4.95c-0.202,0.538-0.471,1.061-0.81,1.565
		c-0.337,0.505-0.71,0.994-1.114,1.466c-0.271-1.01-0.74-2.256-1.415-3.738C-566.31,239.637-567.185,237.784-568.264,235.562"/>
	<path display="none" clip-path="url(#SVGID_4_)" fill="#BE1622" d="M-437.51,231.115l9.195-6.063
		c0.336-0.336,0.74-0.792,1.213-1.365c0.471-0.571,1.01-1.396,1.617-2.475c0.471-0.876,1.093-1.616,1.869-2.224
		c0.774-0.605,1.667-1.144,2.678-1.616c0.538-0.675,1.313-1.516,2.324-2.525c1.01-1.011,2.29-2.191,3.839-3.537
		c0.741-0.404,1.684-0.994,2.83-1.771c1.144-0.772,2.391-1.799,3.738-3.082c6.13-5.792,11.502-10.137,16.117-13.034
		c4.614-2.896,8.505-4.346,11.671-4.346c1.751,0,3.048,0.372,3.891,1.112c0.841,0.741,1.263,1.786,1.263,3.132
		c0,1.415-0.253,2.662-0.758,3.739c-0.505,1.079-1.297,1.988-2.375,2.728c-1.685,1.214-3.504,2.562-5.456,4.042
		c-1.079,1.415-2.393,2.914-3.941,4.497c-1.55,1.584-3.369,3.151-5.457,4.7c-0.674,0.876-1.246,1.649-1.717,2.324
		c-0.338,0.336-0.978,0.942-1.92,1.819c-0.944,0.876-2.191,1.887-3.739,3.03c-0.675,1.483-2.14,3.403-4.396,5.761
		c-2.257,2.355-5.272,5.186-9.043,8.487c-0.473,0.473-1.314,1.548-2.526,3.233c-1.213,1.685-2.797,3.908-4.75,6.669l0.708,0.91
		c1.481-0.474,3.031-1.281,4.648-2.426c1.617-1.145,3.401-2.66,5.355-4.548c2.29-2.089,4.16-3.79,5.608-5.104
		c1.448-1.313,2.476-2.171,3.082-2.575c0.471-0.271,0.943-0.538,1.415-0.809c0.471-0.271,1.01-0.606,1.617-1.011
		c3.098-3.706,5.994-6.45,8.69-8.236c2.694-1.783,5.186-2.676,7.477-2.676c1.415,0,2.492,0.554,3.234,1.666
		c0.74,1.11,1.178,2.779,1.313,5.003c-0.135,3.366-0.202,6.601-0.202,9.699c-0.068,2.155,0.522,4.092,1.768,5.81
		s2.88,2.578,4.901,2.578c0.607,0,1.195-0.169,1.769-0.505c0.572-0.336,1.162-0.776,1.768-1.314
		c0.471-0.605,0.926-1.179,1.364-1.717c0.437-0.538,0.892-1.079,1.364-1.617c0.269-0.134,0.657-0.371,1.162-0.707
		c0.505-0.336,0.993-0.74,1.465-1.213c0.943,2.021,1.735,3.788,2.375,5.304c0.639,1.516,1.128,2.849,1.465,3.992
		c-1.55,1.415-3.082,2.879-4.598,4.394c-1.515,1.517-3.116,2.95-4.799,4.297c-2.021,1.549-3.975,2.712-5.861,3.484
		c-1.887,0.776-3.773,1.163-5.659,1.163c-4.379,0-7.747-1.245-10.104-3.738c-2.358-2.493-3.739-6.265-4.143-11.316
		c0-0.607-0.085-1.229-0.253-1.871c-0.169-0.639-0.523-1.295-1.061-1.969c-0.337,0.336-0.707,0.69-1.111,1.059
		c-0.404,0.372-0.877,0.861-1.415,1.467c-0.876,0.674-1.97,1.517-3.284,2.526c-1.313,1.011-2.847,2.223-4.597,3.638
		c-2.359,2.425-4.345,4.413-5.962,5.962c-1.617,1.548-2.763,2.659-3.436,3.334c-1.348,1.145-2.914,2.291-4.698,3.437
		c-1.787,1.144-3.79,2.324-6.013,3.536c-1.414,0.739-2.627,1.33-3.637,1.767c-1.011,0.438-1.752,0.658-2.223,0.658
		c-3.234,0-5.625-0.792-7.175-2.376c-1.548-1.581-2.324-4.022-2.324-7.324c0-1.819,0.388-3.553,1.162-5.205
		c0.776-1.649,1.938-3.25,3.486-4.799c0.134-0.876,0.202-1.584,0.202-2.122c0-0.336-0.084-0.691-0.252-1.062
		c-0.169-0.369-0.387-0.789-0.657-1.263c-0.404-0.941-0.859-2.004-1.364-3.184c-0.505-1.177-1.061-2.442-1.667-3.788
		c0.27-0.271,0.656-0.792,1.162-1.568C-438.773,233.222-438.183,232.26-437.51,231.115"/>
	<path display="none" clip-path="url(#SVGID_4_)" fill="#BE1622" d="M-363.039,235.561c0.472-0.538,1.044-1.297,1.718-2.273
		c0.674-0.976,1.515-2.104,2.526-3.384c0.875-0.74,1.885-1.734,3.031-2.982c1.144-1.246,2.425-2.811,3.84-4.698
		c0.538-1.144,1.195-2.407,1.97-3.79c0.775-1.379,1.668-3.013,2.678-4.899c0.404-1.818,1.346-3.892,2.829-6.215
		c1.482-2.324,3.537-4.935,6.164-7.831c3.705-4.109,7.579-8.488,11.62-13.137c2.088-3.099,4.362-5.389,6.821-6.872
		c2.458-1.48,5.103-2.223,7.932-2.223c1.886,0,3.317,0.843,4.295,2.526c0.976,1.686,1.465,4.178,1.465,7.478
		c0,1.212-0.826,3.101-2.476,5.659c-1.651,2.56-4.16,5.827-7.528,9.801c-2.089,2.493-4.278,4.969-6.568,7.428
		c-2.291,2.461-4.547,4.97-6.77,7.528c-1.01,0.942-2.071,1.969-3.183,3.081c-1.111,1.111-2.307,2.343-3.587,3.689
		c-0.404,1.415-0.842,2.999-1.314,4.75c0,2.627,0.168,4.898,0.506,6.818c0.336,1.92,0.841,3.557,1.515,4.902
		c0.336,0.472,1.061,1.532,2.173,3.182c1.111,1.652,2.609,3.79,4.496,6.417c0.472,0.676,1.044,1.348,1.718,2.021
		c0.673,0.675,1.448,1.347,2.324,2.021c1.011-0.403,2.963-2.206,5.861-5.406c2.896-3.198,6.803-7.729,11.721-13.591l3.84,9.298
		c-0.472,0.537-1.364,1.633-2.678,3.281c-1.313,1.653-2.914,3.824-4.799,6.52c-2.156,2.83-4.345,5.86-6.568,9.094
		c0,0.675,0.319,1.448,0.96,2.325c0.639,0.873,1.431,1.851,2.374,2.93c1.751,2.021,3.25,4.648,4.497,7.881
		c1.245,3.234,2.205,7.175,2.88,11.823c-0.069,0.336-0.152,0.874-0.253,1.617c-0.101,0.74-0.186,1.581-0.253,2.525
		c-0.808,7.745-5.575,15.493-14.298,23.241c-8.724,7.745-16.959,11.62-24.706,11.62c-3.57,0-6.416-0.456-8.538-1.366
		c-2.122-0.908-3.621-2.271-4.497-4.091c-0.335-0.876-0.606-2.594-0.808-5.152c-0.202-2.563-0.303-5.963-0.303-10.206
		c0-0.404,0.186-1.196,0.556-2.376c0.371-1.18,0.992-2.777,1.869-4.799c0.471-1.349,1.128-2.747,1.971-4.194
		c0.841-1.447,1.734-3.016,2.677-4.697c0.942-1.415,1.902-2.797,2.88-4.143c0.976-1.35,1.902-2.695,2.779-4.042
		c2.155-2.359,4.074-4.446,5.759-6.266c1.28-1.281,2.274-2.493,2.981-3.637c0.708-1.147,1.061-2.158,1.061-3.032
		c-2.291-3.168-4.581-6.196-6.871-9.094c-2.425-3.031-4.395-6.063-5.911-9.094c-1.516-3.032-2.51-6.132-2.981-9.296
		c-0.068-0.405-0.337-1.045-0.808-1.921c-1.55,1.483-3.066,2.998-4.547,4.548c-0.271-1.012-0.74-2.257-1.415-3.739
		C-361.084,239.636-361.959,237.785-363.039,235.561 M-329.896,278.001c-0.404,0-1.331,0.942-2.779,2.829
		c-1.449,1.885-3.419,4.681-5.911,8.387c-1.415,2.224-2.829,4.479-4.244,6.771c-1.415,2.289-2.898,4.547-4.446,6.77
		c-0.539,0.74-1.314,2.491-2.324,5.255c-1.011,2.761-1.516,4.511-1.516,5.254c0,1.278,0.354,2.224,1.061,2.83
		c0.708,0.606,1.801,0.909,3.284,0.909c5.186,0,10.509-2.813,15.966-8.438c5.456-5.626,8.184-11.03,8.184-16.217
		c0-1.079-0.202-2.344-0.606-3.791c-0.404-1.446-0.943-3.048-1.617-4.798c-0.876-1.956-1.717-3.402-2.526-4.345
		C-328.177,278.471-329.021,278.001-329.896,278.001"/>
	<path display="none" clip-path="url(#SVGID_4_)" fill="#BE1622" d="M-307.463,235.562l0.606-0.707l0.303-1.011
		c1.819-2.493,5.018-5.743,9.599-9.752c4.58-4.006,7.747-7.256,9.499-9.75c0.673-1.078,1.447-1.852,2.324-2.324
		c0.875-0.472,1.75-0.707,2.627-0.707c2.357,0,4.345,0.59,5.962,1.767c1.617,1.181,2.694,2.949,3.233,5.307
		c0.471,2.089,0.91,4.191,1.314,6.313c0.404,2.122,0.74,4.264,1.01,6.418c0.471,1.347,1.044,3.384,1.718,6.112
		c0.673,2.728,1.179,4.296,1.516,4.7c0.336,0.674,0.841,1.161,1.516,1.464c0.673,0.303,1.515,0.456,2.526,0.456
		c1.212,0,2.458-0.219,3.738-0.658c1.28-0.437,2.594-1.194,3.941-2.273c1.011-0.876,2.072-1.769,3.183-2.679
		c1.112-0.909,2.205-1.799,3.284-2.676l4.042,9.296c-1.079,1.079-2.51,2.308-4.294,3.688c-1.786,1.382-3.925,2.981-6.417,4.801
		c-2.762,2.021-5.12,3.52-7.073,4.495c-1.954,0.978-3.436,1.467-4.446,1.467c-6.131,0-10.105-0.707-11.924-2.122
		c-1.818-1.415-3.839-5.356-6.062-11.822c-0.271-0.538-0.675-1.18-1.213-1.92c-0.539-0.74-1.146-1.617-1.819-2.628
		c-0.808-1.548-1.516-2.711-2.122-3.487c-0.606-0.772-1.111-1.161-1.515-1.161c-1.079,0-2.527,0.725-4.345,2.172
		c-1.819,1.45-4.042,3.622-6.67,6.519c-0.337-0.876-0.757-1.92-1.263-3.132c-0.505-1.213-1.026-2.627-1.566-4.244
		c-0.134-0.404-0.303-0.776-0.505-1.112C-306.958,236.033-307.193,235.764-307.463,235.562 M-265.226,155.834
		c1.684,0,2.913,0.337,3.688,1.01c0.774,0.675,1.162,1.651,1.162,2.931c-0.404,1.887-0.741,3.47-1.01,4.749
		c-0.675,2.425-1.263,4.413-1.769,5.962c-0.505,1.55-0.893,2.661-1.162,3.334c-0.606,1.483-1.432,2.779-2.475,3.892
		c-1.045,1.11-2.308,2.104-3.789,2.979c-1.55,1.079-2.847,1.837-3.891,2.274s-1.768,0.624-2.172,0.556
		c-1.146-0.134-2.241-0.253-3.284-0.354c-1.045-0.101-2.072-0.151-3.082-0.151c-0.877-0.471-1.566-1.38-2.072-2.729
		c-0.505-1.346-0.757-3.165-0.757-5.456c0-2.021,1.228-4.564,3.688-7.629c2.458-3.064,4.63-4.699,6.517-4.901
		c1.145-1.415,2.492-3.031,4.042-4.85c0.673-0.471,1.549-0.859,2.627-1.162C-267.887,155.986-266.641,155.834-265.226,155.834"/>
	<path display="none" clip-path="url(#SVGID_4_)" fill="#BE1622" d="M-249.665,235.562c0.27-0.472,0.624-0.994,1.061-1.568
		c0.438-0.569,0.96-1.261,1.566-2.069c0.675-0.538,1.549-1.313,2.627-2.324c1.078-1.01,2.29-2.19,3.638-3.536
		c1.213-1.347,2.694-3.015,4.446-5.004c1.751-1.985,3.873-4.395,6.366-7.223c1.077-1.145,2.425-2.611,4.042-4.397
		c1.617-1.783,3.537-3.923,5.761-6.416c1.885-2.223,3.905-3.873,6.062-4.952c2.155-1.077,4.445-1.616,6.87-1.616
		s4.211,0.759,5.355,2.273c1.145,1.516,1.718,3.723,1.718,6.619c0,1.55-0.573,4.515-1.718,8.893s-2.931,10.173-5.355,17.38
		c-0.606,1.348-1.18,2.627-1.718,3.841c-0.404,0.877-0.674,1.648-0.809,2.323c-0.134,0.676-0.202,1.181-0.202,1.517
		c0,0.403,0.235,0.909,0.707,1.515c0.336-0.202,0.658-0.472,0.963-0.808c0.303-0.336,0.654-0.74,1.059-1.213
		c0.538-1.011,1.366-2.072,2.477-3.185c1.112-1.111,2.442-2.34,3.99-3.687c0.606-1.145,1.398-2.275,2.376-3.387
		c0.976-1.111,2.07-2.138,3.283-3.081c0.27-0.27,0.622-0.707,1.062-1.313c0.438-0.607,0.959-1.246,1.565-1.92
		c0.877-0.877,1.92-1.786,3.132-2.729c1.213-0.942,2.628-1.92,4.244-2.931c1.819-0.942,3.452-1.685,4.902-2.223
		c1.447-0.538,2.71-0.809,3.788-0.809c2.089,0,3.94,0.505,5.558,1.517c1.617,1.01,2.998,2.594,4.143,4.749
		c1.347,4.175,2.627,8.051,3.841,11.62c0.739,2.089,1.566,3.638,2.477,4.647c0.909,1.011,1.937,1.516,3.08,1.516
		c0.877,0,1.669-0.169,2.376-0.505s1.363-0.841,1.969-1.516l4.042,9.296c-1.144,0.942-2.324,1.92-3.537,2.931
		c-1.212,1.011-2.392,1.988-3.536,2.931c-1.549,1.415-2.998,2.409-4.345,2.979c-1.347,0.574-2.696,0.861-4.042,0.861
		c-1.549,0-3.032-0.336-4.445-1.011c-1.415-0.675-2.628-1.686-3.639-3.031c-0.538-0.538-1.212-1.532-2.021-2.982
		c-0.809-1.447-1.75-3.25-2.829-5.404c-0.877-0.877-1.868-2.037-2.98-3.487c-1.11-1.448-2.408-3.149-3.891-5.103l-0.91-0.303
		c-1.278,0.404-2.542,1.01-3.785,1.819c-1.245,0.808-2.572,1.851-3.983,3.132c-3.029,2.696-5.218,4.378-6.563,5.053
		c-1.346,0.674-2.253,1.447-2.723,2.324c-0.942,1.616-2.56,3.706-4.848,6.264c-2.285,2.56-5.145,5.592-8.574,9.096
		c-0.876,0.876-1.751,1.733-2.625,2.574c-0.875,0.845-1.749,1.67-2.624,2.478c-0.874,0.74-1.868,1.262-2.978,1.564
		c-1.112,0.304-2.339,0.456-3.684,0.456c-2.696,0-4.161-0.929-4.396-2.779c-0.236-1.853-0.455-3.721-0.657-5.607
		c1.011-2.829,2.155-6.366,3.435-10.609c1.278-4.244,2.751-9.195,4.418-14.854c0-0.336,0.116-0.792,0.35-1.365
		c0.233-0.57,0.517-1.33,0.852-2.271c0.333-0.877,0.565-1.634,0.699-2.275c0.132-0.639,0.199-1.194,0.199-1.666
		c0-0.473-0.169-0.841-0.505-1.112c-0.337-0.27-0.876-0.403-1.617-0.403c-0.674,0-1.565,0.403-2.677,1.213
		c-1.112,0.808-2.443,2.089-3.992,3.84c-1.887,2.021-3.402,3.604-4.547,4.749c-1.145,1.144-1.92,1.819-2.324,2.021
		c-0.674,0.472-1.465,1.144-2.374,2.021c-0.91,0.876-1.938,1.851-3.082,2.93c-0.135,0.271-0.338,0.675-0.607,1.212
		c-0.27,0.538-0.707,1.146-1.313,1.819c-0.271-1.01-0.74-2.256-1.415-3.738C-247.71,239.637-248.585,237.784-249.665,235.562"/>
	<path display="none" clip-path="url(#SVGID_4_)" fill="#BE1622" d="M-149.832,231.115l9.195-6.063
		c0.336-0.336,0.739-0.792,1.213-1.365c0.472-0.571,1.01-1.396,1.617-2.475c0.472-0.876,1.095-1.616,1.869-2.224
		c0.773-0.605,1.666-1.144,2.678-1.616c0.538-0.675,1.313-1.516,2.323-2.525c1.011-1.011,2.291-2.191,3.84-3.537
		c0.74-0.404,1.685-0.994,2.829-1.771c1.145-0.772,2.393-1.799,3.738-3.082c6.132-5.792,11.503-10.137,16.119-13.034
		c4.612-2.896,8.504-4.346,11.669-4.346c1.751,0,3.048,0.372,3.892,1.112c0.842,0.741,1.263,1.786,1.263,3.132
		c0,1.415-0.252,2.662-0.757,3.739c-0.506,1.079-1.297,1.988-2.376,2.728c-1.686,1.214-3.505,2.562-5.456,4.042
		c-1.079,1.415-2.394,2.914-3.941,4.497c-1.549,1.584-3.367,3.151-5.457,4.7c-0.674,0.876-1.245,1.649-1.717,2.324
		c-0.336,0.336-0.979,0.942-1.92,1.819c-0.943,0.876-2.191,1.887-3.739,3.03c-0.675,1.483-2.138,3.403-4.394,5.761
		c-2.26,2.355-5.274,5.186-9.045,8.487c-0.474,0.473-1.314,1.548-2.526,3.233c-1.213,1.685-2.797,3.908-4.75,6.669l0.708,0.91
		c1.482-0.474,3.031-1.281,4.647-2.426c1.617-1.145,3.403-2.66,5.355-4.548c2.292-2.089,4.16-3.79,5.61-5.104
		c1.446-1.313,2.474-2.171,3.08-2.575c0.473-0.271,0.942-0.538,1.414-0.809c0.473-0.271,1.011-0.606,1.617-1.011
		c3.1-3.706,5.994-6.45,8.69-8.236c2.695-1.783,5.186-2.676,7.477-2.676c1.415,0,2.494,0.554,3.234,1.666
		c0.74,1.11,1.179,2.779,1.313,5.003c-0.134,3.366-0.201,6.601-0.201,9.699c-0.068,2.155,0.521,4.092,1.77,5.81
		c1.245,1.718,2.878,2.578,4.899,2.578c0.605,0,1.195-0.169,1.77-0.505c0.571-0.336,1.161-0.776,1.768-1.314
		c0.472-0.605,0.926-1.179,1.364-1.717c0.438-0.538,0.892-1.079,1.363-1.617c0.271-0.134,0.658-0.371,1.164-0.707
		c0.505-0.336,0.991-0.74,1.463-1.213c0.943,2.021,1.735,3.788,2.376,5.304c0.639,1.516,1.128,2.849,1.464,3.992
		c-1.548,1.415-3.08,2.879-4.596,4.394c-1.516,1.517-3.116,2.95-4.801,4.297c-2.021,1.549-3.975,2.712-5.861,3.484
		c-1.887,0.776-3.771,1.163-5.659,1.163c-4.377,0-7.747-1.245-10.104-3.738c-2.357-2.493-3.739-6.265-4.144-11.316
		c0-0.607-0.085-1.229-0.251-1.871c-0.17-0.639-0.524-1.295-1.063-1.969c-0.336,0.336-0.707,0.69-1.111,1.059
		c-0.404,0.372-0.877,0.861-1.415,1.467c-0.877,0.674-1.969,1.517-3.282,2.526c-1.313,1.011-2.849,2.223-4.599,3.638
		c-2.357,2.425-4.345,4.413-5.962,5.962c-1.617,1.548-2.761,2.659-3.437,3.334c-1.346,1.145-2.913,2.291-4.696,3.437
		c-1.786,1.144-3.791,2.324-6.015,3.536c-1.414,0.739-2.627,1.33-3.637,1.767c-1.011,0.438-1.751,0.658-2.223,0.658
		c-3.234,0-5.624-0.792-7.175-2.376c-1.549-1.581-2.324-4.022-2.324-7.324c0-1.819,0.388-3.553,1.164-5.205
		c0.774-1.649,1.936-3.25,3.483-4.799c0.135-0.876,0.202-1.584,0.202-2.122c0-0.336-0.084-0.691-0.251-1.062
		c-0.169-0.369-0.388-0.789-0.658-1.263c-0.403-0.941-0.857-2.004-1.362-3.184c-0.506-1.177-1.063-2.442-1.668-3.788
		c0.27-0.271,0.657-0.792,1.162-1.568C-151.094,233.222-150.504,232.26-149.832,231.115"/>
	<path display="none" clip-path="url(#SVGID_4_)" fill="#BE1622" d="M-75.36,235.562l0.605-0.707l0.304-1.011
		c1.818-2.493,5.02-5.743,9.599-9.752c4.58-4.006,7.748-7.256,9.499-9.75c0.674-1.078,1.447-1.852,2.324-2.324
		c0.877-0.472,1.75-0.707,2.627-0.707c2.356,0,4.345,0.59,5.962,1.767c1.617,1.181,2.695,2.949,3.233,5.307
		c0.473,2.089,0.909,4.191,1.313,6.313s0.74,4.264,1.01,6.418c0.474,1.347,1.044,3.384,1.718,6.112
		c0.676,2.728,1.181,4.296,1.517,4.7c0.336,0.674,0.841,1.161,1.516,1.464c0.674,0.303,1.516,0.456,2.526,0.456
		c1.212,0,2.458-0.219,3.738-0.658c1.28-0.437,2.595-1.194,3.94-2.273c1.011-0.876,2.073-1.769,3.186-2.679
		c1.11-0.909,2.202-1.799,3.281-2.676l4.042,9.296c-1.078,1.079-2.51,2.308-4.293,3.688c-1.785,1.382-3.924,2.981-6.418,4.801
		c-2.761,2.021-5.119,3.52-7.072,4.495c-1.953,0.978-3.437,1.467-4.446,1.467c-6.131,0-10.105-0.707-11.924-2.122
		s-3.839-5.356-6.063-11.822c-0.271-0.538-0.675-1.18-1.213-1.92s-1.144-1.617-1.819-2.628c-0.808-1.548-1.516-2.711-2.121-3.487
		c-0.606-0.772-1.111-1.161-1.516-1.161c-1.079,0-2.526,0.725-4.345,2.172c-1.819,1.45-4.042,3.622-6.669,6.519
		c-0.336-0.876-0.757-1.92-1.262-3.132c-0.506-1.213-1.027-2.627-1.568-4.244c-0.134-0.404-0.303-0.776-0.505-1.112
		S-75.091,235.764-75.36,235.562 M-33.123,155.834c1.685,0,2.913,0.337,3.689,1.01c0.772,0.675,1.16,1.651,1.16,2.931
		c-0.404,1.887-0.74,3.47-1.01,4.749c-0.676,2.425-1.263,4.413-1.768,5.962c-0.505,1.55-0.893,2.661-1.164,3.334
		c-0.605,1.483-1.431,2.779-2.474,3.892c-1.046,1.11-2.307,2.104-3.79,2.979c-1.549,1.079-2.846,1.837-3.889,2.274
		c-1.046,0.438-1.771,0.624-2.174,0.556c-1.146-0.134-2.24-0.253-3.283-0.354c-1.046-0.101-2.073-0.151-3.083-0.151
		c-0.877-0.471-1.565-1.38-2.07-2.729c-0.505-1.346-0.759-3.165-0.759-5.456c0-2.021,1.228-4.564,3.688-7.629
		c2.458-3.064,4.629-4.699,6.517-4.901c1.145-1.415,2.494-3.031,4.042-4.85c0.675-0.471,1.549-0.859,2.627-1.162
		C-35.783,155.986-34.538,155.834-33.123,155.834"/>
	<path display="none" clip-path="url(#SVGID_4_)" fill="#BE1622" d="M-17.563,235.562c1.079-1.415,2.157-2.898,3.234-4.446
		c4.918-4.042,8.942-7.934,12.076-11.672c3.132-3.739,5.404-7.224,6.818-10.457l-1.01-4.852c0.876-1.684,3.048-3.67,6.52-5.962
		c3.468-2.289,6.28-3.436,8.436-3.436c2.291,0,4.227,0.674,5.811,2.021c1.581,1.348,3.113,2.762,4.597,4.244
		c0.739,0.472,1.28,0.842,1.616,1.11c2.696,2.021,4.718,4.819,6.063,8.388c1.346,3.57,2.021,7.915,2.021,13.035
		c0,2.696-1.046,6.553-3.133,11.569c-2.089,5.019-3.132,8.81-3.132,11.369c0,0.336,0.117,0.605,0.355,0.808
		c0.234,0.202,0.554,0.305,0.959,0.305c0.876,0,1.919-0.389,3.132-1.164c1.213-0.773,2.525-1.835,3.94-3.182
		c3.569-3.504,5.725-5.44,6.468-5.812c0.739-0.369,1.648-0.991,2.728-1.868c0.538,1.346,1.177,2.797,1.92,4.345
		c0.74,1.548,1.447,3.201,2.122,4.951c-0.605,0.538-1.297,1.18-2.07,1.92c-0.775,0.74-1.703,1.584-2.779,2.526
		c-2.292,1.685-5.271,3.723-8.942,6.111c-3.673,2.394-8.067,5.138-13.187,8.237c-1.348,0.877-2.898,1.584-4.649,2.122
		c-2.829,0-4.951-0.421-6.366-1.265c-1.414-0.841-2.122-2.203-2.122-4.091c0-0.74,0.153-1.601,0.457-2.578
		c0.304-0.976,0.724-2.037,1.262-3.182c0.403-0.877,0.841-1.77,1.313-2.679c0.472-0.91,0.876-1.836,1.212-2.778
		c1.483-4.244,2.611-8.184,3.388-11.821c0.772-3.639,1.159-6.904,1.159-9.803c0-3.568-0.554-6.297-1.665-8.184
		c-1.111-1.888-2.78-2.964-5.004-3.234c-1.481,0.809-3.099,1.953-4.85,3.437c-1.75,1.482-3.536,3.334-5.355,5.557
		c-1.953,2.425-3.706,4.413-5.255,5.962c-1.548,1.548-2.829,2.595-3.839,3.132c-0.606,1.012-1.584,2.155-2.931,3.437
		s-3.132,2.66-5.355,4.143c-0.134,0.271-0.336,0.675-0.606,1.212c-0.271,0.538-0.707,1.146-1.313,1.819
		c-0.538-1.548-1.144-3.083-1.819-4.599C-16.012,238.743-16.754,237.179-17.563,235.562"/>
	<path display="none" clip-path="url(#SVGID_4_)" fill="#BE1622" d="M49.836,235.562c0.809-1.414,1.854-2.846,3.133-4.296
		c1.277-1.447,2.894-2.946,4.85-4.495c0.202-1.347,0.404-2.68,0.606-3.992c0.202-1.314,0.336-2.645,0.403-3.99
		c0.202-0.942,0.522-2.054,0.959-3.335c0.44-1.281,0.927-2.66,1.467-4.143c0.606-1.483,1.431-3.335,2.477-5.56
		c1.044-2.223,2.406-4.715,4.091-7.477c1.415-1.55,2.896-3.25,4.446-5.104c1.549-1.852,3.097-3.721,4.648-5.607
		c0.74-0.606,1.549-1.179,2.426-1.719c0.874-0.538,1.75-1.144,2.627-1.818c0.808-0.27,1.718-0.505,2.728-0.707
		c1.011-0.202,2.122-0.304,3.335-0.304c1.683,0,3.047,0.17,4.091,0.506c1.046,0.337,1.903,0.909,2.578,1.718
		c0.471,0.539,0.927,1.348,1.365,2.425c0.437,1.079,0.858,2.392,1.262,3.941c0.202,1.348,0.438,2.829,0.707,4.445
		c0-0.403-0.117-0.234-0.352,0.505c-0.238,0.742-0.593,1.92-1.063,3.537l-0.909,3.233c-0.945,3.234-3.067,6.974-6.366,11.218
		c-3.302,4.244-7.747,9.094-13.338,14.55c-0.473,0.474-0.876,1.061-1.212,1.768c-0.34,0.708-0.507,1.467-0.507,2.274
		c0,1.415,0.252,2.66,0.761,3.739c0.502,1.079,1.226,1.887,2.171,2.425c0.538,0.404,1.397,0.81,2.575,1.213
		c1.18,0.404,2.577,0.775,4.194,1.111c2.627-0.202,5.018-0.639,7.174-1.313c2.155-0.676,4.075-1.483,5.761-2.427
		c0.336-0.202,0.874-0.487,1.616-0.859c0.74-0.368,1.48-0.857,2.224-1.464c0.873,1.952,1.648,3.705,2.324,5.255
		c0.671,1.548,1.212,2.896,1.615,4.042c-3.839,3.771-7.326,6.616-10.457,8.537c-3.135,1.92-6.013,2.881-8.64,2.881
		c-1.079,0.675-2.308,1.161-3.687,1.464c-1.383,0.303-3.019,0.456-4.902,0.456c-2.494,0-4.7-0.372-6.618-1.112
		c-1.922-0.74-3.522-1.818-4.801-3.233c-0.674-0.675-1.35-1.669-2.021-2.981c-0.674-1.314-1.381-2.879-2.122-4.698
		c-0.605-1.482-1.179-2.578-1.717-3.285c-0.541-0.707-1.146-1.06-1.818-1.06c-0.541,0-1.147,0.252-1.819,0.757
		c-0.675,0.505-1.415,1.264-2.224,2.275c-0.27-1.012-0.739-2.256-1.414-3.739C51.791,239.636,50.914,237.784,49.836,235.562
		 M82.171,202.72c-1.483,0-3.472,1.938-5.963,5.811c-2.492,3.875-3.737,6.721-3.737,8.54c0,0.403,0.084,0.69,0.251,0.856
		c0.169,0.17,0.521,0.254,1.062,0.254c0.74,0,1.348-0.387,1.819-1.162c0.47-0.773,0.909-1.497,1.313-2.172
		c0.74-0.675,1.464-1.397,2.174-2.174c0.705-0.772,1.396-1.532,2.07-2.271c0.809-0.942,1.414-1.888,1.818-2.829
		c0.405-0.944,0.607-1.888,0.607-2.831c0-0.606-0.118-1.094-0.355-1.465C82.995,202.906,82.641,202.72,82.171,202.72"/>
	<path clip-path="url(#SVGID_4_)" fill="#BE1622" d="M163.551,66.536c-4.556-3.453-10.134-4.134-15.427-5.668
		c-3.59-1.045-7.021-3.101-10.53-3.965c-1.079-0.261-2.044-0.829-3.09-1.17c-2.636-0.84-5.351-1.488-7.918-2.51
		c-5.51-2.17-11.075-3.101-17.062-2.635c-3.669,0.272-9.679-0.512-14.007-0.943c1.363-1.545,1.92-2.522,2.409-3.59v-0.011
		c0.386-0.841,0.704-1.738,1.362-3.045c-0.25-0.102-0.5-0.193-0.75-0.284h-0.011c-1.727-0.204-4.84-0.874-6.646-1.567
		c-0.807-0.307-1.363-0.739-1.988-1.182c-0.999-0.704-2.307-1.476-5.043-1.829c-0.012-0.011-0.034-0.011-0.046-0.011
		c0.034-0.091,0.067-0.182,0.102-0.261c0.159-0.864,0.229-1.67,0.229-1.67l0.237,0.363c0.068,0.103,0.159,0.228,0.262,0.387
		c0.113-0.648,0.103-1.364,0.046-1.966c-0.058-0.67-0.17-1.192-0.193-1.317c0.034,0.045,0.136,0.193,0.307,0.499
		c0.124,0.262,0.307,0.648,0.512,1.182c0.034-0.579-0.171-1.715-0.388-2.749c-0.227-1.113-0.477-2.102-0.477-2.102
		s0.228,0.057,0.534,0.523c0.205,0.329,0.442,0.863,0.659,1.727c0.352-1.068,0.067-3.67-0.762-5.055
		c-0.022-0.046-0.045-0.091-0.067-0.125c-0.773-1.182-1.875-4.703-2.137-5.589c0.228,0.488,0.887,1.829,2.022,3.055
		c0-0.136-0.011-0.261-0.034-0.397c-0.341-1.125-0.216-2.488-0.896-6.43c0.227,0.159,0.431,0.398,0.636,0.727
		c0.646,0.977,1.329,2.658,2.863,4.658c-0.273-1.909-0.875-3.738-1.603-5.373v-0.023c-1.216-2.772-2.715-4.953-3.306-5.941
		c-0.943-1.568-3.328-2.318-3.896-2.999c0.478-0.08,1.137,0.068,1.772,0.284c0.988,0.341,1.92,0.852,2.079,0.943
		c-0.138-0.148-0.875-0.886-1.704-1.602c-0.534-0.477-1.125-0.943-1.613-1.215c-1.307-0.762-4.271,0-4.271,0s0.442-0.796,1.056-1.42
		c0.261-0.262,0.545-0.489,0.841-0.625c-0.25-0.125-0.557-0.159-0.886-0.125c-1.273,0.113-2.908,1.159-2.908,1.159
		s-0.33-0.364-1.159-0.148c0.092-0.284,0.342-0.614,0.67-0.943c0.387-0.409,0.863-0.829,1.25-1.17
		c-0.478-0.114-1.033,0.057-1.307,0.159c-0.068,0.034-0.113,0.057-0.146,0.068c0.021-0.023,0.078-0.079,0.146-0.136
		c0.114-0.125,0.239-0.284,0.239-0.398c0-0.147-0.046-0.42-0.284-0.59c-0.046-0.046-0.102-0.08-0.171-0.103
		c-0.056,0.466-0.272,0.171-1.079,0.455c-1.829,0.159-4.907,3.817-6.089,5.146c-0.022-0.659,0.216-1.42,0.772-2.295
		c0.433-0.682,1.057-1.443,1.887-2.272c-0.433,0.102-0.898,0.227-1.398,0.398c-0.738,0.25-1.567,0.59-2.487,1.09
		c-1.545,0.818-2.521,4.249-2.521,4.249c-0.012-0.046-0.034-0.25-0.103-1.023c-0.034-0.397,0.045-0.988,0.182-1.647
		c0.284-1.408,0.817-3.101,1-3.726c0.261-0.863,1.908-3.09,2.079-3.317c-0.08,0.034-0.467,0.216-1.704,0.966
		c-0.239,0.159-0.523,0.329-0.829,0.522c-2.147,1.352-4.59,6.282-3.908,8.883c-4.692-0.397-4.669,1.898-6.146,3.215
		c-1.307,1.136-1.897,3.499-1.897,3.499s-0.965-0.204-1.397,2.34c-0.352,1.965,0.398,7.213,0.909,9.69
		c0.148,0.704,0.272,1.193,0.353,1.306c0.136,0.205,0.307,0.307,0.477,0.341c0.261,0.068,0.489,0,0.489,0
		c-0.012,0.329,0.079,0.784,0.238,1.295c0.602,1.92,2.146,4.692,3.135,4.828c-0.272-0.386-0.465-0.727-0.636-1.125
		c0,0,0-0.011-0.012-0.022c-0.261-0.648-0.432-1.443-0.716-2.772c0.523,1.726,1.488,3.453,2.499,4.907
		c1.704,2.454,3.557,4.135,3.647,3.794c0.17-0.59,1.465,2.318,2.056,2.658c0.602,0.341,1.283,0.421,2.135,0.091
		c0.194-0.079,0.375-0.091,0.546-0.045c0.068,0.045,0.137,0.079,0.204,0.125c-1.306,1.181-2.431,2.612-2.885,3.294
		c-0.682,1.011-4.726,2.863-3.215,2.533c0.534-0.113,1.556,0.296,3.021,0.909c-0.442,0.295-1.022,0.648-1.182,0.75
		c-2.146,1.261-4.305,2.544-6.452,3.817c-7.088,4.146-10.61,11.904-9.247,20.027c0.308,1.806,0.205,3.691,0.114,5.532
		c-0.034,0.659-0.443,1.681-0.954,1.897c-3.794,1.636-2.954,4.055-1.466,6.94c-0.443-0.329-0.931-0.613-1.306-0.999
		c-4.362-4.419-8.735-8.827-13.063-13.28c0.068-0.318,0.09-0.545,0.045-0.613c-0.136-0.284-0.954-0.75-1.942-1.34
		c-1.204-0.739-2.646-1.67-3.34-2.693c-0.682-1.033-1.466-2.771-2.261-4.225c-0.646-1.182-1.318-2.181-1.942-2.465
		c-0.033-0.023-0.716-0.398-1.453-0.841c-0.693-0.42-1.454-0.897-1.773-1.17c-0.146-0.125-0.261-0.25-0.352-0.398
		c-0.182-0.306-0.295-0.647-0.488-1.045c-0.103-0.227-0.239-0.466-0.409-0.727c-0.034-0.045-0.08-0.125-0.125-0.17
		c-0.307-0.421-0.761-0.704-1.238-0.875c-0.113-0.045-0.216-0.079-0.33-0.102c0.023-0.057,0.058-0.114,0.069-0.159
		c0.17-0.455-0.125-0.841-0.33-1.147c0,0-0.057-0.08-0.102-0.125c-0.25-0.205-0.489-0.228-0.67-0.25
		c-0.092-0.012-0.193-0.023-0.308-0.023h-0.08c-0.056,0-0.136-0.011-0.204-0.011c-0.692-0.023-1.612-0.023-2.476,0.022
		c0.011,0,0.022-0.011,0.045-0.022c0.603-0.296,0.988-0.671,1.215-1.057c0.433-0.704,0.354-1.431,0.058-1.783
		c-0.103-0.125-0.387-0.114-0.749-0.012c-0.716,0.148-1.784,0.625-2.534,0.977c-0.409,0.182-0.715,0.341-0.818,0.386
		c0.205-0.136,1.08-0.863,0.671-1.817c-0.012-0.023-0.034-0.045-0.057-0.068c-0.012-0.034-0.046-0.046-0.068-0.057
		c-0.057-0.034-0.125-0.08-0.182-0.102c-0.318-0.046-0.614-0.068-0.897-0.057c-1.75,0.386-4.135,3.101-4.135,4.101
		c0,0.852-0.659,4.066,0.545,7.565c2.522,4.703,6.885,7.395,12.019,9.133h0.022c1.749,0.466,3.044,0.818,3.432,1.648
		c0.091,0.181,0.158,0.409,0.216,0.693c0.602,2.851,0.112,10.416,1.806,11.109c0.045,0.023,0.091,0.046,0.136,0.046
		c0.75,0.238,1.137-0.353,1.387-1.034c0.329-0.886,0.396-1.909,0.658-1.488c0.137,0.227,0.329,0.431,0.579,0.591
		c0.568,0.374,1.353,0.499,1.999,0.215c0.784,0.602,1.262,1.761,1.784,2.942c2.079,4.647,4.01,9.372,6.373,13.871
		c1.306,2.499,3.102,4.873,5.134,6.827c2.033,1.954,4.658,3.305,7.226,5.055c-4.227,1.829-8.986,3.351-9.236,8.735
		c-0.193,4.544,0.114,9.326,5.658,11.36c-0.875,1.988-1.565,2.761-2.511,5.702c0.829,0.341,1.497,1.126,2.464,1.524
		c0.445-3.706,1.058-3.125,1.772-4.966c0.375,3.681-0.211,4.564,1.058,10.224c1.203-0.318,2.124-0.568,2.941-0.784
		c-2.245-7.242-1.309-7.242-1.843-10.184c0.397-0.261,41.336,27.81,41.336,29.886c0,1.545-0.734,2.256-0.734,2.256
		s-1.307-4.941-2.124-4.987c-1.716,2.068-3.112,3.726-4.748,5.692c-0.363,0.431-0.125,1.102,0.432,1.215
		c1.988,0.409,3.43,0.716,5.078,1.056c-1.728,3.022-3.42,5.714-6.691,6.896c-1.999,0.715-4.078,1.237-6.065,1.976
		c-0.954,0.354-1.796,0.989-2.579,2.034c4.226,1.374,8.497,0.636,12.677,0.965c4.51,0.341,8.611-0.579,12.438-3.941
		c0.25,1.602,0.387,2.545,0.603,3.873c2.193,0,4.499,0.228,6.748-0.045c2.204-0.272,4.135-4.896,3.317-7.736
		c-1.478-5.112-4.431-9.315-8.031-13.155c-5.612-6.02-11.133-12.132-16.665-18.232c-0.728-0.806-1.249-1.783-2.352-3.374
		c5.01,0.943,9.439,0.228,13.688,2.306c3.181,1.568,6.225,2.852,10.133,3.442c0.488,0.08,0.772-0.113,0.897,0.046
		c2.396,3.021,6.293,5.123,6.964,9.201c1.056,6.555,1.601,13.211,2.215,19.834c0.136,1.419,0.068,3.022-0.466,4.373
		c-0.909,2.295-0.523,4.113,0.521,7.271c0.263,0.761,0.319,1.726,0.013,2.385c-1.534,3.419-2.647,7.27-4.998,10.031
		c-4.432,5.214-5.34,10.904-4.624,17.346c1.295,11.802-0.591,23.151-6.135,33.647c-2.476,4.669-3.941,8.859-0.386,13.461h7.781
		c0.091-1.079,0.171-2.158,0.284-3.682c2.511,1.33,4.736,2.512,6.952,3.682h18.368c0.363-2.329-1.283-2.783-2.976-3.158
		c-5.158-1.147-9.633-3.249-12.132-8.724c1.135-0.183,2.191-0.273,3.203-0.546c0.75-0.216,1.941-0.613,2.011-1.067
		c0.102-0.762-0.354-1.762-0.898-2.387c-0.965-1.102-2.17-1.965-3.59-3.202c-0.954,1.556-1.84,2.952-2.703,4.351
		c-0.466-0.148-0.386-0.125-0.852-0.273c0.227-3.202,0.363-6.406,0.75-9.587c0.545-4.544,2.066-8.747,4.498-12.688
		c4.657-7.566,8.099-15.552,8.361-24.673c0.078-2.499,2.064-9.408,2.575-9.408c0.568,2.602,1.059,3.808,1.862,10.196l2.832-0.209
		c-1.013-5.756-1.182-4.987-1.943-8.202c1.523,1.829,2.58,1.642,3.469,4.857c0.716-0.658,1.006-2.439,1.903-3.258
		c-2.538-3.934-3.439-2.963-5.734-5.041c3.816-2.534,2.771-6.112,2.874-9.747c0.147-5.384,1.271-10.769,2.226-16.108
		c0.307-1.738,0.648-3.465,1.011-5.191c0.864-4.158,1.818-8.304,2.443-12.496c0.556-3.612,0.295-7.338,0.443-11.007
		c0.011-0.273,0.021-0.58,0.056-0.852c0.069-0.409,0.182-0.807,0.387-1.091c0.056,0.33,0.103,0.648,0.136,0.954
		c0.183-0.079,0.364-0.181,0.568-0.318c1.193-0.829,6.566-11.087,9.076-14.756c0.772-0.829,1.636-1.59,2.613-2.249
		c2.374-1.147,5.736-1.908,5.85-2.499c0.057-0.307-0.375-0.545-0.863-0.716c-0.727-0.261-1.567-0.409-1.112-0.5
		c0.192-0.034,0.533-0.238,0.942-0.522c1.283-0.886,3.237-2.67,3.477-3.601c0.181-0.704-0.933-0.943-2.217-1.057
		c-1.295-0.511-2.498-0.988-3.419-1.363c3.261-10.621,6.373-20.663,9.451-30.716c0.114-0.386,0.229-0.773,0.33-1.159
		c0.478-1.829,0.704-3.726,0.704-5.623v-3.851C164.027,67.127,163.846,66.764,163.551,66.536 M50.613,22.279
		c0,0-0.046,6.464,1.011,8.52C50.738,30.799,50.124,22.95,50.613,22.279 M7.98,60.788c0.261-0.159,0.534-0.272,0.784-0.352
		c0.17-0.057,0.442-0.057,0.795-0.057c0.25,0.012,0.534,0.012,0.829,0.012H10.4v0.011c-0.034,0.171,0.011,0.375,0.079,0.557
		c-0.478-0.046-1.136-0.102-1.738-0.137C8.47,60.8,8.207,60.8,7.98,60.788 M14.354,66.468c-0.466-0.193-0.897-0.375-1.329-0.545
		c0,0-0.011-0.011-0.023-0.011c-0.578-0.307-1.271-0.659-1.862-0.796c-0.113-0.022-0.228-0.034-0.341-0.045
		c-0.716-0.057-1.966,0.182-1.966-0.08c0-0.238-0.261-1.204,0.33-1.51c0.079-0.046,0.182-0.091,0.295-0.125
		c0.058,0.011,0.103,0.022,0.159,0.034c0.341,0.113,0.772,0.182,1.204,0.227c0.284,0.023,0.568,0.045,0.829,0.057
		c0.75,0.17,1.42,0.636,2.034,1.386c0.113,0.238,0.25,0.522,0.386,0.806c0.103,0.193,0.193,0.398,0.295,0.58
		C14.364,66.457,14.364,66.457,14.354,66.468 M71.504,112.588c-0.558,0.489-0.273,1.909-0.387,3.192H52.794
		c1.262-3.873,2.761-7.781,3.761-11.814c1.658-6.611,2.986-13.302,4.635-20.776c1.931,3.919,3.68,7.088,5.077,10.405
		c2.011,4.76,3.771,9.633,5.612,14.461C72.47,109.601,73.219,111.065,71.504,112.588 M97.948,53.893
		c0.023,0,0.034,0.023,0.046,0.046c0,0.011,0.012,0.022,0.012,0.034C97.994,53.938,97.972,53.916,97.948,53.893 M120.213,59.958
		v0.012l-0.011-0.012H120.213z M138.707,130.707c-0.216,0.409-0.488,0.874-0.772,1.374c-0.204-1.158-0.409-2.34-0.636-3.498
		l2.601-1.477C139.899,127.105,139.865,128.604,138.707,130.707 M144.943,101.24c-0.08,0.488-0.5,0.909-0.795,1.42
		c-1.488-0.773-4.578-1.874-4.578-1.636c-0.477,0.568-0.307,3.249-0.125,5.532c0.114,1.329,0.227,2.511,0.227,3.056
		c0,1.477-3.976,4.93-5.759,6.123c-1.771-4.078-5.236-11.348-8.452-18.107c-0.112-0.25-0.237-0.489-0.352-0.739
		c-0.693-1.397-1.396-2.783-2.09-4.169c-0.67-1.306-1.261-2.647-1.772-3.998c-0.012,0-0.012,0-0.012-0.012
		c-1.499-3.169-2.59-5.543-2.896-6.384c-0.648-1.772-1.079-8.417-1.159-9.44c-0.012-0.295,0.011-0.545,0.102-0.761
		c0.375-1.022,1.875-0.829,3.045-0.749c1.557,0.102,3.124,0.374,4.623,0.783c5.431,1.454,13.109,3.647,18.743,5.249
		c0.489,0.136,0.796,0.579,0.841,1.09c0.183,2.068,2.329,3.487,3.317,3.851C146.795,88.313,145.897,95.242,144.943,101.24"/>
</g>
</svg>
